# Blender 3.5.0
# www.blender.org
mtllib frist_draftsmall.mtl
o Cube
v 0.002310 0.000311 -0.002468
v 0.003739 0.000522 0.001822
v -0.003237 0.000311 -0.002468
v -0.002708 0.000522 0.001822
v -0.009476 0.063110 -0.000756
v -0.002638 0.049454 -0.001772
v -0.009476 0.063110 0.000110
v -0.002638 0.049454 0.001126
v -0.010938 0.063110 -0.000756
v -0.005940 0.049454 -0.001772
v -0.010938 0.063110 0.000110
v -0.005560 0.049454 0.001126
v -0.002084 0.025725 -0.002229
v 0.001458 0.025725 -0.002229
v 0.001255 0.024836 0.001583
v -0.002182 0.024836 0.001583
vn -0.0000 0.0186 0.9998
vn -0.9888 -0.1479 0.0221
vn -0.0000 -0.9988 0.0493
vn -0.0000 1.0000 -0.0000
vn 0.9853 0.1628 0.0513
vn -0.0000 0.0742 0.9972
vn 0.8942 0.4477 -0.0000
vn -0.9307 -0.3536 0.0941
vn -0.0000 0.0742 -0.9972
vn -0.0000 0.0192 -0.9998
vn -0.0000 0.0094 -1.0000
vn 0.9874 0.0663 -0.1439
vn -0.9979 0.0337 0.0560
vn -0.0000 0.0098 1.0000
vt 0.375000 0.500000
vt 0.375000 0.750000
vt 0.125000 0.500000
vt 0.375000 0.250000
vt 0.125000 0.750000
vt 0.375000 0.000000
vt 0.375000 1.000000
vt 0.672803 0.547803
vt 0.625000 0.500000
vt 0.577197 0.500000
vt 0.672803 0.702197
vt 0.625000 0.750000
vt 0.577197 0.750000
vt 0.827197 0.547803
vt 0.875000 0.500000
vt 0.577197 0.250000
vt 0.827197 0.702197
vt 0.577197 1.000000
vt 0.577197 0.000000
vt 0.875000 0.750000
vt 0.476098 0.250000
vt 0.476098 0.500000
vt 0.476098 0.750000
vt 0.476098 0.000000
vt 0.476098 1.000000
s 0
usemtl Material
f 15/23/1 8/13/1 12/18/1 16/25/1
f 16/24/2 12/19/2 10/16/2 13/21/2
f 3/3/3 1/1/3 2/2/3 4/5/3
f 5/8/4 9/14/4 11/17/4 7/11/4
f 14/22/5 6/10/5 8/13/5 15/23/5
f 7/11/6 11/17/6 12/20/6 8/12/6
f 5/8/7 7/11/7 8/13/7 6/10/7
f 11/17/8 9/14/8 10/15/8 12/20/8
f 9/14/9 5/8/9 6/9/9 10/15/9
f 13/21/10 10/16/10 6/10/10 14/22/10
f 3/4/11 13/21/11 14/22/11 1/1/11
f 1/1/12 14/22/12 15/23/12 2/2/12
f 4/6/13 16/24/13 13/21/13 3/4/13
f 2/2/14 15/23/14 16/25/14 4/7/14
