# Blender 3.5.0
# www.blender.org
mtllib frist_draft.mtl
o Cube
v 0.018269 -0.218264 -0.005809
v 0.022514 -0.216921 0.008848
v 0.001786 -0.218264 -0.005809
v 0.003359 -0.216921 0.008848
v -0.016751 0.180414 0.000041
v 0.003566 0.093719 -0.003432
v -0.016751 0.180414 0.002998
v 0.003566 0.093719 0.006471
v -0.021093 0.180414 0.000041
v -0.006244 0.093719 -0.003432
v -0.021093 0.180414 0.002998
v -0.005113 0.093719 0.006471
v 0.005212 -0.056922 -0.004992
v 0.015736 -0.056922 -0.004992
v 0.015134 -0.062569 0.008031
v 0.004922 -0.062569 0.008031
vn -0.0000 0.0100 1.0000
vn -0.9974 -0.0698 0.0194
vn -0.0000 -0.9958 0.0913
vn -0.0000 1.0000 -0.0000
vn 0.9960 0.0770 0.0451
vn -0.0000 0.0400 0.9992
vn 0.9736 0.2282 -0.0000
vn -0.9809 -0.1744 0.0863
vn -0.0000 0.0400 -0.9992
vn -0.0000 0.0104 -0.9999
vn -0.0000 0.0051 -1.0000
vn 0.9916 0.0311 -0.1257
vn -0.9987 0.0158 0.0487
vn -0.0000 0.0053 1.0000
vt 0.375000 0.500000
vt 0.375000 0.750000
vt 0.125000 0.500000
vt 0.375000 0.250000
vt 0.125000 0.750000
vt 0.375000 0.000000
vt 0.375000 1.000000
vt 0.672803 0.547803
vt 0.625000 0.500000
vt 0.577197 0.500000
vt 0.672803 0.702197
vt 0.625000 0.750000
vt 0.577197 0.750000
vt 0.827197 0.547803
vt 0.875000 0.500000
vt 0.577197 0.250000
vt 0.827197 0.702197
vt 0.577197 1.000000
vt 0.577197 0.000000
vt 0.875000 0.750000
vt 0.476098 0.250000
vt 0.476098 0.500000
vt 0.476098 0.750000
vt 0.476098 0.000000
vt 0.476098 1.000000
s 0
usemtl Material
f 15/23/1 8/13/1 12/18/1 16/25/1
f 16/24/2 12/19/2 10/16/2 13/21/2
f 3/3/3 1/1/3 2/2/3 4/5/3
f 5/8/4 9/14/4 11/17/4 7/11/4
f 14/22/5 6/10/5 8/13/5 15/23/5
f 7/11/6 11/17/6 12/20/6 8/12/6
f 5/8/7 7/11/7 8/13/7 6/10/7
f 11/17/8 9/14/8 10/15/8 12/20/8
f 9/14/9 5/8/9 6/9/9 10/15/9
f 13/21/10 10/16/10 6/10/10 14/22/10
f 3/4/11 13/21/11 14/22/11 1/1/11
f 1/1/12 14/22/12 15/23/12 2/2/12
f 4/6/13 16/24/13 13/21/13 3/4/13
f 2/2/14 15/23/14 16/25/14 4/7/14
