# Blender 3.5.0
# www.blender.org
mtllib second_draft.mtl
o Plane
v -0.000325 0.042517 0.006211
v 0.000110 0.042635 -0.003970
v 0.000315 0.000232 0.004601
v 0.000616 0.000314 -0.002450
v -0.000931 0.090343 0.006824
v -0.000443 0.090475 -0.004577
v -0.000218 0.126813 0.005457
v 0.000233 0.126935 -0.005094
v -0.000148 0.157037 0.003100
v 0.000156 0.157120 -0.004014
v -0.000728 0.196211 0.000393
v -0.000683 0.196223 -0.000675
vn -0.9990 -0.0135 -0.0428
vn -0.9990 -0.0121 -0.0428
vn -0.9989 0.0179 -0.0425
vn -0.9991 -0.0010 -0.0427
vn -0.9989 -0.0178 -0.0429
vt 0.000000 0.000000
vt 1.000000 0.000000
vt 0.000000 1.000000
vt 1.000000 1.000000
vt 0.000000 0.000000
vt 1.000000 0.000000
vt 0.000000 0.000000
vt 1.000000 0.000000
vt 0.000000 0.000000
vt 1.000000 0.000000
vt 0.000000 0.000000
vt 1.000000 0.000000
s 0
f 1/1/1 2/2/1 4/4/1 3/3/1
f 2/2/2 1/1/2 5/5/2 6/6/2
f 6/6/3 5/5/3 7/7/3 8/8/3
f 8/8/4 7/7/4 9/9/4 10/10/4
f 10/10/5 9/9/5 11/11/5 12/12/5
